# xmcd
#
# Track frame offsets:
#	150
#	11257
#	19440
#	37412
#	49402
#	68020
#	76847
#	89967
#	100410
#	110365
#	126054
#	136742
#	148682
#	155380
#	165660
#	180965
#	193700
#	207487
#	219482
#	232357
#
# Disc length: 3300 seconds
#
# Revision: 2
# Processed by: cddbd v1.5.2PL0 Copyright (c) Steve Scherf et al.
# Submitted via: EasyCDDAExtractor 7.0.3.1
#
DISCID=240ce214
DTITLE=Various Artist - 20 Golden Country Waltzes
DYEAR=1900
DGENRE=Country
TTITLE0=Mac Wiseman - Waltz Across Texas
TTITLE1=Benny Martin and Buddy Spicher - Life In The Finlands Woods
TTITLE2=Mark Thornton - El Paso
TTITLE3=Osborne Brothers - Kentucky Waltz
TTITLE4=Johnnt Gimble - Texas Jole Blon
TTITLE5=Grandpa Jones Family - Greensleeves
TTITLE6=Terry Eldridge and Osborne Bros - Old Flames Can't Hold A Candle To You
TTITLE7=Benny Martin and Buddy Spicher - Tennessee Waltz
TTITLE8=Nashville Superpickers - Norwegian Wood
TTITLE9=Mac Wiseman - The Last Letter
TTITLE10=Benny Martin and Buddy Spicher - Georgiana Moon
TTITLE11=Merle Haggard - Westphalia Waltz
TTITLE12=Grandpa Jones Family - Down Home Waltz
TTITLE13=Osborne Bros and Mac Wiseman - Shenandoah Waltz
TTITLE14=Nashville Grass - Amazing Grace
TTITLE15=Josh Graves - Starlight Waltz
TTITLE16=Eddie Adcock Band - Before I Met You
TTITLE17=Kenny Baker - Kelly Lynn Waltz
TTITLE18=Mike Fried - Blue Danube Waltz
TTITLE19=Johnny Gimble - Goodnight Waltz
EXTD=
EXTT0=
EXTT1=
EXTT2=
EXTT3=
EXTT4=
EXTT5=
EXTT6=
EXTT7=
EXTT8=
EXTT9=
EXTT10=
EXTT11=
EXTT12=
EXTT13=
EXTT14=
EXTT15=
EXTT16=
EXTT17=
EXTT18=
EXTT19=
PLAYORDER=
